# File created by Blade
# Date/Time:  Thu Sep 25 19:36:54 2014
# Frame Rate: 120.000 fps
#------------------------------------------------------
:FULLY-SPECIFIED
:DEGREES
927
root -1.008715 33.223153 2.183331 22.320576 -26.218170 -9.524970
Spine -14.876658 -1.853020 12.962971
Head -7.871177 28.723425 8.664900
LeftShoulder -8.914781 17.120290 11.700202
LeftArm 30.328076 37.814817 -64.190127
LeftForeArm 7.713664 0.000000 22.037587
LeftHand -22.658783 -0.000000 -12.198967
LeftHandThumb1 -26.253704 0.000000 33.147579
RightShoulder -24.966271 7.124848 -22.937387
RightArm -19.860275 -12.542268 70.512736
RightForeArm -26.912820 0.000000 20.299510
RightHand -7.450441 0.000000 7.969111
RightHandThumb1 -24.326973 -0.000000 -32.862282
LeftUpLeg -11.177212 10.713099 0.406082
LeftLeg -3.371401 -0.000000 0.000000
LeftFoot -13.318686 21.554035 -10.227850
LeftToeBase 5.176026 -0.000000 -0.000000
RightUpLeg -15.802248 9.271436 -13.265026
RightLeg 101.936372 -0.000000 -0.000000
RightFoot -3.604584 -9.118024 9.378558
RightToeBase -1.736271 -0.000000 0.000000
928
root -1.054227 33.225869 2.110745 22.108486 -26.386733 -9.380089
Spine -14.601916 -1.931102 12.680277
Head -8.095095 28.979926 8.753879
LeftShoulder -8.938851 17.068008 11.730466
LeftArm 30.400174 37.890766 -64.125987
LeftForeArm 7.730838 -0.000000 22.176097
LeftHand -22.850770 0.000000 -12.132826
LeftHandThumb1 -26.253704 0.000000 33.147579
RightShoulder -24.900118 7.420266 -22.810974
RightArm -19.351006 -12.488807 71.129485
RightForeArm -27.222943 -0.000000 21.132916
RightHand -7.589687 0.000000 7.987751
RightHandThumb1 -24.326973 -0.000000 -32.862282
LeftUpLeg -11.148232 10.586789 0.417385
LeftLeg -3.207158 -0.000000 0.000000
LeftFoot -13.503984 21.774259 -10.229927
LeftToeBase 5.481742 -0.000000 -0.000000
RightUpLeg -17.144419 8.713528 -12.433401
RightLeg 99.806756 -0.000000 -0.000000
RightFoot -5.031315 -8.792019 8.846710
RightToeBase -1.818022 -0.000000 0.000000
929
root -1.097140 33.231257 2.036683 21.949411 -26.525461 -9.237047
Spine -14.415397 -2.001563 12.445008
Head -8.292351 29.147214 8.751088
LeftShoulder -8.917829 17.011879 11.745156
LeftArm 30.422096 37.927129 -64.132960
LeftForeArm 7.898110 -0.000000 22.268273
LeftHand -22.664960 0.000000 -12.177120
LeftHandThumb1 -26.253704 0.000000 33.147579
RightShoulder -24.843706 7.636517 -22.701013
RightArm -18.752710 -12.714444 71.855500
RightForeArm -27.452676 0.000000 21.768462
RightHand -7.446869 -0.000000 6.927072
RightHandThumb1 -24.326973 -0.000000 -32.862282
LeftUpLeg -11.333516 10.949569 0.303396
LeftLeg -2.795304 -0.000000 0.000000
LeftFoot -13.583504 21.580748 -10.073023
LeftToeBase 5.313917 -0.000000 -0.000000
RightUpLeg -18.499418 8.119383 -11.626478
RightLeg 97.496715 -0.000000 -0.000000
RightFoot -6.399456 -8.280362 8.708964
RightToeBase -2.295704 -0.000000 0.000000
930
root -1.149718 33.234986 1.967567 21.784025 -26.709984 -9.216924
Spine -14.136541 -2.012739 12.335423
Head -8.546382 29.363057 8.653287
LeftShoulder -8.918877 16.947835 11.700836
LeftArm 30.471089 37.998273 -64.098841
LeftForeArm 7.835001 0.000000 22.386227
LeftHand -22.690359 -0.000000 -12.259461
LeftHandThumb1 -26.253704 0.000000 33.147579
RightShoulder -24.811713 7.917286 -22.605462
RightArm -18.148910 -12.994226 72.502356
RightForeArm -27.368767 0.000000 22.463352
RightHand -7.574717 0.000000 6.533300
RightHandThumb1 -24.326973 -0.000000 -32.862282
LeftUpLeg -11.270230 10.902592 0.417233
LeftLeg -2.674360 -0.000000 0.000000
LeftFoot -13.635398 21.868635 -10.048670
LeftToeBase 5.217641 -0.000000 -0.000000
RightUpLeg -19.729540 7.685606 -10.723980
RightLeg 94.973456 -0.000000 -0.000000
RightFoot -7.655179 -7.696563 8.942638
RightToeBase -2.956318 -0.000000 0.000000
931
root -1.206720 33.236980 1.906681 21.584876 -26.736829 -9.085135
Spine -13.978882 -2.202288 12.175740
Head -8.679024 29.618082 8.653502
LeftShoulder -8.914922 16.960643 11.681544
LeftArm 30.578505 38.123171 -64.014706
LeftForeArm 7.766903 0.000000 22.486347
LeftHand -22.659829 0.000000 -12.190182
LeftHandThumb1 -26.253704 0.000000 33.147579
RightShoulder -24.661409 8.066064 -22.455967
RightArm -17.536389 -13.116910 73.150076
RightForeArm -27.344244 -0.000000 23.124733
RightHand -7.580916 -0.000000 6.193458
RightHandThumb1 -24.326973 -0.000000 -32.862282
LeftUpLeg -11.228740 10.709190 0.496908
LeftLeg -2.540793 -0.000000 0.000000
LeftFoot -13.687344 22.053881 -10.103600
LeftToeBase 5.180342 -0.000000 -0.000000
RightUpLeg -20.806911 7.067142 -9.891613
RightLeg 92.248245 -0.000000 -0.000000
RightFoot -8.840422 -6.775259 9.490241
RightToeBase -3.842801 -0.000000 0.000000
932
root -1.260166 33.243535 1.841051 21.461295 -26.814140 -9.005961
Spine -13.844171 -2.311223 12.077822
Head -8.855732 29.869192 8.570170
LeftShoulder -8.910288 16.938996 11.612791
LeftArm 30.629387 38.213097 -63.986539
LeftForeArm 7.857475 -0.000000 22.585416
LeftHand -22.662741 0.000000 -12.013931
LeftHandThumb1 -26.253704 0.000000 33.147579
RightShoulder -24.627490 8.062690 -22.259610
RightArm -16.564685 -13.465249 73.761049
RightForeArm -27.120436 -0.000000 23.564382
RightHand -7.551403 0.000000 5.724389
RightHandThumb1 -24.326973 -0.000000 -32.862282
LeftUpLeg -11.230405 10.490287 0.626595
LeftLeg -2.425536 -0.000000 0.000000
LeftFoot -13.729521 22.231982 -10.297081
LeftToeBase 5.046037 -0.000000 -0.000000
RightUpLeg -21.912397 6.657638 -9.022775
RightLeg 89.332902 -0.000000 -0.000000
RightFoot -9.857369 -6.052077 10.036954
RightToeBase -4.023822 -0.000000 0.000000
933
root -1.305026 33.249941 1.774137 21.377418 -26.929311 -8.899843
Spine -13.753201 -2.374059 11.975663
Head -9.049830 30.069366 8.416305
LeftShoulder -8.889857 16.879773 11.525264
LeftArm 30.617185 38.275069 -64.008781
LeftForeArm 7.998661 0.000000 22.675524
LeftHand -22.536166 0.000000 -12.041219
LeftHandThumb1 -26.253704 0.000000 33.147579
RightShoulder -24.551511 8.248672 -22.149667
RightArm -15.858555 -13.714919 74.375971
RightForeArm -27.088555 -0.000000 24.115497
RightHand -7.671311 -0.000000 5.939692
RightHandThumb1 -24.326973 -0.000000 -32.862282
LeftUpLeg -11.275663 10.268996 0.685739
LeftLeg -2.334853 -0.000000 0.000000
LeftFoot -13.747553 22.495575 -10.417507
LeftToeBase 4.955942 -0.000000 -0.000000
RightUpLeg -22.985077 6.371811 -8.251392
RightLeg 86.250889 -0.000000 -0.000000
RightFoot -10.707517 -5.015191 10.802271
RightToeBase -4.078332 -0.000000 0.000000
934
root -1.358182 33.258064 1.706754 21.317485 -26.999247 -8.876628
Spine -13.655468 -2.426507 11.976229
Head -9.265758 30.264249 8.230354
LeftShoulder -8.874598 16.852221 11.402535
LeftArm 30.767828 38.441906 -63.914239
LeftForeArm 7.923324 0.000000 22.713785
LeftHand -22.823862 -0.000000 -11.731048
LeftHandThumb1 -26.253704 0.000000 33.147579
RightShoulder -24.429502 8.458790 -22.018225
RightArm -15.177094 -14.011562 74.964427
RightForeArm -26.880311 -0.000000 24.601712
RightHand -7.619938 -0.000000 5.549522
RightHandThumb1 -24.326973 -0.000000 -32.862282
LeftUpLeg -11.310451 9.999237 0.856341
LeftLeg -2.251494 -0.000000 0.000000
LeftFoot -13.769901 22.845936 -10.507223
LeftToeBase 4.877987 -0.000000 -0.000000
RightUpLeg -23.929638 6.022621 -7.407622
RightLeg 82.959932 -0.000000 -0.000000
RightFoot -11.474807 -3.958388 11.330068
RightToeBase -4.993872 -0.000000 0.000000
935
root -1.412741 33.264781 1.648651 21.211181 -27.113827 -8.830071
Spine -13.510180 -2.458084 11.939831
Head -9.492618 30.494727 8.059862
LeftShoulder -8.893484 16.770373 11.287055
LeftArm 30.838893 38.614147 -63.891350
LeftForeArm 7.865968 -0.000000 22.762782
LeftHand -22.782213 0.000000 -11.639211
LeftHandThumb1 -26.253704 0.000000 33.147579
RightShoulder -24.312456 8.700154 -21.877546
RightArm -14.502045 -14.376913 75.552443
RightForeArm -26.812199 -0.000000 24.979920
RightHand -7.518031 -0.000000 5.435323
RightHandThumb1 -24.326973 -0.000000 -32.862282
LeftUpLeg -11.282956 9.826302 0.970452
LeftLeg -2.175726 -0.000000 0.000000
LeftFoot -13.785759 23.154381 -10.565930
LeftToeBase 4.781532 -0.000000 -0.000000
RightUpLeg -24.708558 5.764258 -6.654158
RightLeg 79.470181 -0.000000 -0.000000
RightFoot -12.184468 -3.035697 12.126290
RightToeBase -4.546697 -0.000000 0.000000
936
root -1.471921 33.270804 1.593512 21.090510 -27.227769 -8.814255
Spine -13.339218 -2.457163 11.937965
Head -9.767173 30.652753 7.830779
LeftShoulder -8.881800 16.702413 11.175980
LeftArm 30.923948 38.718592 -63.921835
LeftForeArm 7.927508 -0.000000 22.740704
LeftHand -22.761987 -0.000000 -11.549435
LeftHandThumb1 -26.253704 0.000000 33.147579
RightShoulder -24.215271 8.961649 -21.777386
RightArm -13.837177 -14.889641 76.179620
RightForeArm -26.558838 -0.000000 25.285197
RightHand -7.433351 -0.000000 5.283041
RightHandThumb1 -24.326973 -0.000000 -32.862282
LeftUpLeg -11.186481 9.600128 1.148871
LeftLeg -2.148712 -0.000000 0.000000
LeftFoot -13.788106 23.480471 -10.557986
LeftToeBase 4.788045 -0.000000 -0.000000
RightUpLeg -25.337909 5.557605 -5.894941
RightLeg 75.802630 -0.000000 -0.000000
RightFoot -12.806167 -2.390483 12.638933
RightToeBase -5.094529 -0.000000 0.000000
937
root -1.531354 33.280075 1.536732 21.001266 -27.255893 -8.775868
Spine -13.227992 -2.480071 11.943298
Head -10.062019 30.744752 7.589239
LeftShoulder -8.841573 16.604498 11.080707
LeftArm 31.051889 38.935290 -63.899084
LeftForeArm 7.925704 -0.000000 22.717136
LeftHand -22.762530 0.000000 -11.406295
LeftHandThumb1 -26.253704 0.000000 33.147579
RightShoulder -24.089890 9.349928 -21.683251
RightArm -13.372770 -15.375670 76.797184
RightForeArm -26.608133 -0.000000 25.605357
RightHand -7.439002 -0.000000 5.168166
RightHandThumb1 -24.326973 -0.000000 -32.862282
LeftUpLeg -11.190013 9.394524 1.290002
LeftLeg -2.062102 -0.000000 0.000000
LeftFoot -13.850219 23.793701 -10.739330
LeftToeBase 4.674696 -0.000000 -0.000000
RightUpLeg -25.868551 5.347969 -5.159125
RightLeg 71.971216 -0.000000 -0.000000
RightFoot -13.239602 -1.771526 12.974089
RightToeBase -5.107604 -0.000000 0.000000
938
root -1.598089 33.286561 1.486197 20.832202 -27.290339 -8.793535
Spine -12.966363 -2.475212 11.996359
Head -10.477285 30.834147 7.290909
LeftShoulder -8.804922 16.456455 10.983338
LeftArm 31.197070 39.132815 -63.916298
LeftForeArm 7.834321 -0.000000 22.649272
LeftHand -22.844506 -0.000000 -11.138799
LeftHandThumb1 -26.253704 0.000000 33.147579
RightShoulder -23.994636 9.635538 -21.581515
RightArm -12.736886 -15.951716 77.422801
RightForeArm -26.524566 -0.000000 25.815508
RightHand -7.289276 0.000000 5.202416
RightHandThumb1 -24.326973 -0.000000 -32.862282
LeftUpLeg -11.046640 9.256889 1.495107
LeftLeg -2.024817 -0.000000 0.000000
LeftFoot -13.830084 24.070765 -10.592151
LeftToeBase 4.778547 -0.000000 -0.000000
RightUpLeg -26.122914 5.195601 -4.393587
RightLeg 67.952965 -0.000000 -0.000000
RightFoot -13.613571 -1.073918 13.202154
RightToeBase -5.362527 -0.000000 0.000000
